# Blender v2.79 (sub 0) OBJ File: ''
# www.blender.org
mtllib plane-parallel.mtl
o Circle
v 0.000000 0.000000 0.000000
v 0.000000 0.000000 -7.000000
v -0.686120 0.000000 -6.966293
v -1.365632 0.000000 -6.865497
v -2.031993 0.000000 -6.698583
v -2.678784 0.000000 -6.467156
v -3.299777 0.000000 -6.173449
v -3.888992 0.000000 -5.820287
v -4.440753 0.000000 -5.411074
v -4.949748 0.000000 -4.949748
v -5.411073 0.000000 -4.440753
v -5.820287 0.000000 -3.888992
v -6.173449 0.000000 -3.299778
v -6.467156 0.000000 -2.678784
v -6.698583 0.000000 -2.031992
v -6.865497 0.000000 -1.365632
v -6.966293 0.000000 -0.686119
v -7.000000 0.000000 0.000001
v -6.966293 0.000000 0.686121
v -6.865497 0.000000 1.365634
v -6.698582 0.000000 2.031995
v -6.467155 0.000000 2.678786
v -6.173448 0.000000 3.299779
v -5.820286 0.000000 3.888994
v -5.411071 0.000000 4.440755
v -4.949745 0.000000 4.949750
v -4.440750 0.000000 5.411076
v -3.888988 0.000000 5.820290
v -3.299773 0.000000 6.173450
v -2.678780 0.000000 6.467159
v -2.031988 0.000000 6.698584
v -1.365627 0.000000 6.865498
v -0.686115 0.000000 6.966293
v 0.000006 0.000000 7.000000
v 0.686126 0.000000 6.966292
v 1.365638 0.000000 6.865496
v 2.031999 0.000000 6.698580
v 2.678790 0.000000 6.467154
v 3.299783 0.000000 6.173446
v 3.888998 0.000000 5.820283
v 4.440759 0.000000 5.411068
v 4.949753 0.000000 4.949742
v 5.411077 0.000000 4.440748
v 5.820290 0.000000 3.888988
v 6.173450 0.000000 3.299774
v 6.467158 0.000000 2.678782
v 6.698583 0.000000 2.031992
v 6.865497 0.000000 1.365633
v 6.966293 0.000000 0.686122
v 7.000000 0.000000 0.000003
v 6.966293 0.000000 -0.686115
v 6.865498 0.000000 -1.365626
v 6.698585 0.000000 -2.031986
v 6.467160 0.000000 -2.678776
v 6.173454 0.000000 -3.299768
v 5.820294 0.000000 -3.888982
v 5.411081 0.000000 -4.440743
v 4.949758 0.000000 -4.949738
v 4.440765 0.000000 -5.411063
v 3.889006 0.000000 -5.820278
v 3.299793 0.000000 -6.173440
v 2.678802 0.000000 -6.467149
v 2.032013 0.000000 -6.698576
v 1.365654 0.000000 -6.865493
v 0.686144 0.000000 -6.966290
vn 0.0000 1.0000 0.0000
usemtl None
s 1
f 1//1 2//1 3//1
f 1//1 3//1 4//1
f 1//1 4//1 5//1
f 1//1 5//1 6//1
f 1//1 6//1 7//1
f 1//1 7//1 8//1
f 1//1 8//1 9//1
f 1//1 9//1 10//1
f 1//1 10//1 11//1
f 1//1 11//1 12//1
f 1//1 12//1 13//1
f 1//1 13//1 14//1
f 1//1 14//1 15//1
f 1//1 15//1 16//1
f 1//1 16//1 17//1
f 1//1 17//1 18//1
f 1//1 18//1 19//1
f 1//1 19//1 20//1
f 1//1 20//1 21//1
f 1//1 21//1 22//1
f 1//1 22//1 23//1
f 1//1 23//1 24//1
f 1//1 24//1 25//1
f 1//1 25//1 26//1
f 1//1 26//1 27//1
f 1//1 27//1 28//1
f 1//1 28//1 29//1
f 1//1 29//1 30//1
f 1//1 30//1 31//1
f 1//1 31//1 32//1
f 1//1 32//1 33//1
f 1//1 33//1 34//1
f 1//1 34//1 35//1
f 1//1 35//1 36//1
f 1//1 36//1 37//1
f 1//1 37//1 38//1
f 1//1 38//1 39//1
f 1//1 39//1 40//1
f 1//1 40//1 41//1
f 1//1 41//1 42//1
f 1//1 42//1 43//1
f 1//1 43//1 44//1
f 1//1 44//1 45//1
f 1//1 45//1 46//1
f 1//1 46//1 47//1
f 1//1 47//1 48//1
f 1//1 48//1 49//1
f 1//1 49//1 50//1
f 1//1 50//1 51//1
f 1//1 51//1 52//1
f 1//1 52//1 53//1
f 1//1 53//1 54//1
f 1//1 54//1 55//1
f 1//1 55//1 56//1
f 1//1 56//1 57//1
f 1//1 57//1 58//1
f 1//1 58//1 59//1
f 1//1 59//1 60//1
f 1//1 60//1 61//1
f 1//1 61//1 62//1
f 1//1 62//1 63//1
f 1//1 63//1 64//1
f 1//1 64//1 65//1
f 1//1 65//1 2//1
